<?xml version="1.0" standalone="no"?><!DOCTYPE svg PUBLIC "-//W3C//DTD SVG 1.1//EN" "http://www.w3.org/Graphics/SVG/1.1/DTD/svg11.dtd"><svg t="1569313746279" class="icon" viewBox="0 0 1024 1024" version="1.1" xmlns="http://www.w3.org/2000/svg" p-id="94653" width="16" height="16" xmlns:xlink="http://www.w3.org/1999/xlink"><defs><style type="text/css"></style></defs><path fill="#666" d="M914.285714 969.142857l0 36.571429q0 7.428571-5.428571 12.857143t-12.857143 5.428571l-768 0q-7.428571 0-12.857143-5.428571t-5.428571-12.857143l0-36.571429q0-7.428571 5.428571-12.857143t12.857143-5.428571l768 0q7.428571 0 12.857143 5.428571t5.428571 12.857143zm-146.285714-603.428571q0 44.571429-14 82.285714t-36.571429 64.285714-50 50.285714-54.857143 44.285714-50 41.142857-36.571429 46.571429-14 55.142857q0 54.857143 38.285714 128l-2.285714-0.571429 0.571429 0.571429q-51.428571-23.428571-91.428571-47.428571t-79.142857-57.142857-64.857143-70-41.428571-86-15.714286-105.142857q0-44.571429 14-82.285714t36.571429-64.285714 50-50.285714 54.857143-44.285714 50-41.142857 36.571429-46.571429 14-55.142857q0-53.714286-37.714286-128l1.714286 0.571429-0.571429-0.571429q51.428571 23.428571 91.428571 47.428571t79.142857 57.142857 64.857143 70 41.428571 86 15.714286 105.142857z" p-id="94654"></path></svg>