<?xml version="1.0" standalone="no"?><!DOCTYPE svg PUBLIC "-//W3C//DTD SVG 1.1//EN" "http://www.w3.org/Graphics/SVG/1.1/DTD/svg11.dtd"><svg t="1569311996617" class="icon" viewBox="0 0 1024 1024" version="1.1" xmlns="http://www.w3.org/2000/svg" p-id="48304" width="16" height="16" xmlns:xlink="http://www.w3.org/1999/xlink"><defs><style type="text/css"></style></defs><path d="M512 16.19456s-352.64 504.704-352.64 677.888c0 153.46688 132.224 280.95488 290.42688 308.096l12.61056-61.12256c-125.312-20.79744-244.54144-116.608-244.54144-231.936C217.856 578.56 512 121.53856 512 121.53856S806.13888 578.56 806.13888 709.12c0 110.336-109.24544 202.24-228.352 228.352l-10.24 65.66912c161.152-24.71424 297.09312-153.48224 297.09312-309.06368C864.69632 520.96 512 16.18944 512 16.18944z m37.94944 675.90144c-77.056 30.01344-83.2-15.03744-83.2-15.03744l79.17056-245.69856c-12.99456-64.768-60.10368-30.08-60.10368-30.08s-82.49344 242.10944-109.17888 320.82944c-26.69056 78.72 45.056 75.19744 45.056 75.19744l143.29344-45.11744-83.2 255.616h30.01856l15.03744-30.08s113.85344-190.78656 143.23712-285.62944c23.04-74.368-75.008-17.59744-120.13056 0z" fill="#272636" p-id="48305"></path></svg>