<?xml version="1.0" standalone="no"?><!DOCTYPE svg PUBLIC "-//W3C//DTD SVG 1.1//EN" "http://www.w3.org/Graphics/SVG/1.1/DTD/svg11.dtd"><svg t="1569312573119" class="icon" viewBox="0 0 1024 1024" version="1.1" xmlns="http://www.w3.org/2000/svg" p-id="74733" width="16" height="16" xmlns:xlink="http://www.w3.org/1999/xlink"><defs><style type="text/css"></style></defs><path fill="#202124" d="M982.646154 208.738462c-41.353846-80.738462-145.723077-230.4-338.707692-141.784615-120.123077 55.138462-187.076923 86.646154-187.076923 86.646154l-173.292308 74.830769c-49.230769 23.630769-155.569231-9.846154-216.615385-31.507692-17.723077-5.907692-33.476923 11.815385-25.6 29.538462 41.353846 80.738462 145.723077 230.4 338.707692 141.784615 120.123077-55.138462 360.369231-159.507692 360.369231-159.507692 49.230769-23.630769 155.569231 9.846154 216.615385 31.507692 17.723077 3.938462 33.476923-13.784615 25.6-31.507692zm-415.507692 252.061538c-21.661538 11.815385-108.307692 51.2-108.307692 51.2l-86.646154 37.415385c-43.323077 23.630769-135.876923-7.876923-191.015385-29.538462-15.753846-7.876923-29.538462 11.815385-21.661538 27.569231 35.446154 78.769231 128 220.553846 297.353846 133.907692 106.338462-53.169231 194.953846-88.615385 194.953846-88.615385 43.323077-23.630769 135.876923 7.876923 191.015385 29.538462 15.753846 5.907692 29.538462-11.815385 21.661538-29.538462-35.446154-76.8-128-218.584615-297.353846-131.938462zm-63.015385 348.553846c-17.723077 9.846154-47.261538 27.569231-47.261538 27.569231-33.476923 21.661538-102.4-5.907692-143.753846-25.6-11.815385-5.907692-21.661538 11.815385-15.753846 27.569231 25.6 70.892308 94.523077 198.892308 222.523077 120.123077 47.261538-29.538462 47.261538-27.569231 47.261538-27.569231 35.446154-17.723077 102.4 5.907692 143.753846 25.6 11.815385 5.907692 21.661538-11.815385 15.753846-27.569231-25.6-70.892308-90.584615-192.984615-222.523077-120.123077z" p-id="74734"></path><path d="M510.030769 494.276923" p-id="74735"></path></svg>