<?xml version="1.0" standalone="no"?><!DOCTYPE svg PUBLIC "-//W3C//DTD SVG 1.1//EN" "http://www.w3.org/Graphics/SVG/1.1/DTD/svg11.dtd"><svg t="1569466386681" class="icon" viewBox="0 0 1098 1024" version="1.1" xmlns="http://www.w3.org/2000/svg" p-id="131166" width="17.15625" height="16" xmlns:xlink="http://www.w3.org/1999/xlink"><defs><style type="text/css"></style></defs><path d="M549.469091 851.316364c-38.632727 0-69.818182-31.185455-69.818182-69.818182V184.32c0-38.632727 31.185455-69.818182 69.818182-69.818182s69.818182 31.185455 69.818182 69.818182v596.945455c0 38.632727-31.185455 70.050909-69.818182 70.050909zM789.178182 665.134545c-38.632727 0-69.818182-31.185455-69.818182-69.818181v-225.047273c0-38.632727 31.185455-69.818182 69.818182-69.818182s69.818182 31.185455 69.818182 69.818182v225.047273c0 38.632727-31.185455 69.818182-69.818182 69.818181zM1029.12 633.250909c-38.632727 0-69.818182-31.185455-69.818182-69.818182v-161.047272c0-38.632727 31.185455-69.818182 69.818182-69.818182s69.818182 31.185455 69.818182 69.818182v161.047272c0 38.632727-31.185455 69.818182-69.818182 69.818182zM309.76 665.134545c-38.632727 0-69.818182-31.185455-69.818182-69.818181v-225.047273c0-38.632727 31.185455-69.818182 69.818182-69.818182s69.818182 31.185455 69.818182 69.818182v225.047273c0 38.632727-31.418182 69.818182-69.818182 69.818181zM69.818182 633.250909c-38.632727 0-69.818182-31.185455-69.818182-69.818182v-161.047272c0-38.632727 31.185455-69.818182 69.818182-69.818182s69.818182 31.185455 69.818182 69.818182v161.047272c0 38.632727-31.185455 69.818182-69.818182 69.818182az" p-id="131167" fill="#202124"></path></svg>