<?xml version="1.0" standalone="no"?><!DOCTYPE svg PUBLIC "-//W3C//DTD SVG 1.1//EN" "http://www.w3.org/Graphics/SVG/1.1/DTD/svg11.dtd"><svg t="1569465147827" class="icon" viewBox="0 0 1024 1024" version="1.1" xmlns="http://www.w3.org/2000/svg" p-id="105086" width="16" height="16" xmlns:xlink="http://www.w3.org/1999/xlink"><defs><style type="text/css"></style></defs><path d="M512.172 16.080v-0.075l-0.074-0.075v0.075l-0.082-0.080-0.017 7.19-0.017-7.19-0.082 0.080v-0.075l-0.074 0.075v0.075c-8.314 8.234-386.486 384.209-373.026 620.905 0.771 205.077 167.249 371.088 372.507 371.088 0.231 0 0.463-0.003 0.694-0.004 0.231 0 0.463 0.004 0.694 0.004 205.258 0 371.734-166.011 372.507-371.088 13.458-236.695-364.714-612.671-373.029-620.905zM828.622 636.16h-0.176c-0.325 174.113-141.564 315.159-315.754 315.159-0.174 0-0.347-0.003-0.519-0.006v-0.004l-0.173 0.002c-0.062-0.001-0.134-0.002-0.207-0.002l0.034 0.004c-0.174 0.003-0.346 0.006-0.519 0.006-174.189 0-315.427-141.046-315.756-315.159h-0.175c-12.281-204.479 316.261-546.668 316.261-546.668l0.188 0.198v0.363l0.173-0.182c0.057 0.063 0.116 0.122 0.174 0.182v-0.364l0.187-0.197c0.003 0 330.007 340.814 316.265 546.668z" p-id="105087" fill="#202124"></path><path d="M226.242 633.494c0 158.432 128.434 286.869 286.869 286.869 133.232 0 244.364-100.727 276.629-223.84-66.122-50.647-232.258-37.233-232.258-37.233-134.147 0-244.971-60.689-316.131-117.908-9.795 28.911-15.109 59.891-15.109 92.111z" p-id="105088" fill="#202124"></path></svg>