<?xml version="1.0" standalone="no"?><!DOCTYPE svg PUBLIC "-//W3C//DTD SVG 1.1//EN" "http://www.w3.org/Graphics/SVG/1.1/DTD/svg11.dtd"><svg t="1569466087170" class="icon" viewBox="0 0 1024 1024" version="1.1" xmlns="http://www.w3.org/2000/svg" p-id="123389" width="16" height="16" xmlns:xlink="http://www.w3.org/1999/xlink"><defs><style type="text/css"></style></defs><path d="M512 0C230.4 0 0 230.4 0 512s230.4 512 512 512 512-230.4 512-512-230.4-512-512-512z m0 960c-249.6 0-448-198.4-448-448s198.4-448 448-448 448 198.4 448 448-198.4 448-448 448z" p-id="123390" fill="#202124"></path><path d="M800 544h-102.4L640 313.6c-6.4-12.8-19.2-25.6-32-25.6s-25.6 6.4-32 19.2L486.4 588.8 448 441.6c-6.4-12.8-19.2-25.6-32-25.6s-25.6 6.4-32 19.2l-51.2 108.8H224c-19.2 0-32 19.2-32 32 0 19.2 12.8 32 32 32h128c12.8 0 25.6-6.4 25.6-19.2l25.6-51.2 44.8 172.8c6.4 12.8 12.8 25.6 32 25.6 12.8 0 25.6-6.4 32-19.2l89.6-281.6 38.4 147.2c6.4 12.8 19.2 25.6 32 25.6h128c19.2 0 32-19.2 32-32 0-19.2-12.8-32-32-32z" p-id="123391" fill="#202124"></path></svg>