<?xml version="1.0" standalone="no"?><!DOCTYPE svg PUBLIC "-//W3C//DTD SVG 1.1//EN" "http://www.w3.org/Graphics/SVG/1.1/DTD/svg11.dtd"><svg t="1569466692256" class="icon" viewBox="0 0 1024 1024" version="1.1" xmlns="http://www.w3.org/2000/svg" p-id="135073" width="16" height="16" xmlns:xlink="http://www.w3.org/1999/xlink"><defs><style type="text/css"></style></defs><path d="M731.428571 349.813665c127.204969 114.484472 174.906832 190.807453 174.906833 314.832298 0 95.403727-44.521739 187.627329-120.844721 254.409938-79.503106 66.782609-181.267081 104.944099-292.571428 104.944099-108.124224 0-213.068323-38.161491-292.571429-104.944099-79.503106-66.782609-120.84472-159.006211-120.84472-254.409938 0-124.024845 47.701863-197.167702 171.726708-314.832298 6.360248-3.180124 6.360248-3.180124 12.720497-9.540373 9.540373-6.360248 12.720497-9.540373 15.900621-15.900621 104.944099-95.403727 139.925466-155.826087 139.925466-257.590062 0-38.161491 34.981366-66.782609 73.142857-66.782609 41.341615 0 73.142857 28.621118 73.142857 66.782609 0 101.763975 38.161491 159.006211 139.925466 257.590062 3.180124 3.180124 9.540373 6.360248 15.900621 15.900621 6.360248 3.180124 6.360248 3.180124 9.540372 9.540373z m-397.515528 28.621118c-3.180124 3.180124-9.540373 6.360248-15.900621 15.900621-3.180124 3.180124-3.180124 3.180124-9.540372 6.360248-111.304348 101.763975-149.465839 162.186335-149.465839 263.950311 0 76.322981 34.981366 146.285714 98.583851 200.347826 63.602484 54.062112 149.465839 85.863354 238.509317 85.863354 92.223602 0 174.906832-28.621118 238.509317-85.863354 63.602484-54.062112 98.583851-124.024845 98.583851-200.347826 0-101.763975-41.341615-162.186335-152.645963-263.950311-3.180124-3.180124-3.180124-3.180124-9.540373-6.360248-9.540373-6.360248-12.720497-9.540373-15.900621-15.900621-101.763975-95.403727-152.645963-165.36646-162.186335-263.950311-9.540373 98.583851-57.242236 165.36646-159.006212 263.950311z m378.434783 349.813664c-6.360248 12.720497-19.080745 19.080745-31.801242 19.080746-3.180124 0-9.540373 0-12.720497-3.180125-19.080745-6.360248-25.440994-25.440994-19.080745-41.341615 6.360248-12.720497 9.540373-25.440994 9.540372-38.16149 0-15.900621-3.180124-31.801242-12.720497-47.701864-9.540373-15.900621 0-34.981366 15.900622-41.341615 19.080745-6.360248 38.161491 0 47.701863 15.900622 12.720497 22.26087 19.080745 47.701863 19.080745 73.142857-3.180124 22.26087-6.360248 41.341615-15.900621 63.602484z" p-id="135074" fill="#202124"></path></svg>