<?xml version="1.0" standalone="no"?><!DOCTYPE svg PUBLIC "-//W3C//DTD SVG 1.1//EN" "http://www.w3.org/Graphics/SVG/1.1/DTD/svg11.dtd"><svg t="1569465335916" class="icon" viewBox="0 0 1024 1024" version="1.1" xmlns="http://www.w3.org/2000/svg" p-id="111732" width="16" height="16" xmlns:xlink="http://www.w3.org/1999/xlink"><defs><style type="text/css"></style></defs><path d="M819.2 546.133333v-68.266666h204.8v68.266666h-204.8z m-113.5616-275.456L849.92 125.952l48.3328 48.128-144.315733 144.725333zM512 776.533333A264.533333 264.533333 0 1 1 776.533333 512 264.9088 264.9088 0 0 1 512 776.533333z m0-460.8A196.266667 196.266667 0 1 0 708.266667 512 196.5056 196.5056 0 0 0 512 315.733333zM477.866667 0h68.266666v204.8h-68.266666V0zM125.815467 174.08L174.08 125.952l144.827733 144.725333-48.264533 48.128zM204.8 546.133333H0v-68.266666h204.8v68.266666z m116.224 206.848L176.708267 897.706667l-48.3328-48.128 144.2816-144.725334zM546.133333 1024h-68.266666v-204.8h68.266666v204.8z m352.0512-174.08L849.92 898.048l-144.827733-144.725333 48.264533-48.128z" fill="#202124" p-id="111733"></path></svg>