<?xml version="1.0" standalone="no"?><!DOCTYPE svg PUBLIC "-//W3C//DTD SVG 1.1//EN" "http://www.w3.org/Graphics/SVG/1.1/DTD/svg11.dtd"><svg t="1569467299568" class="icon" viewBox="0 0 1024 1024" version="1.1" xmlns="http://www.w3.org/2000/svg" p-id="146979" width="16" height="16" xmlns:xlink="http://www.w3.org/1999/xlink"><defs><style type="text/css"></style></defs><path d="M136.584401 512.361327c1.445307-153.202541 96.835568-299.178546 243.534227-351.932251 150.311927-54.199012 315.799577-10.117149 419.86168 110.565984 57.812279 66.484121 86.718419 153.925194 87.441072 241.366267 0.722653 88.163726 137.304164 88.163726 136.581511 0-2.16796-216.073394-136.58151-406.853917-338.924489-482.00988-196.56175-72.988003-429.978829-9.394495-563.669725 151.03458C43.3621 275.330981 1.448198 390.232886 0.002891 512.361327-0.719763 599.802399 135.861747 599.802399 136.584401 512.361327zM302.072051 1004.488356c-26.738179 13.007763-60.702893 19.511644-103.33945 19.511644-54.921665 0-98.280875-16.62103-130.800282-49.140438-32.519407-32.519407-48.417784-76.60127-48.417784-131.522935 0-57.812279 18.066337-104.784757 54.199012-140.917432 36.132675-36.855328 82.382498-54.921665 139.472124-54.921665 35.410021 0 65.038814 4.335921 89.609033 13.730416v75.155964c-24.570219-14.45307-52.753705-21.679605-83.827805-21.679605-35.410021 0-64.316161 11.562456-85.273112 33.964714-20.956951 22.402258-31.796754 52.753705-31.796754 88.88638 0 35.410021 10.117149 64.316161 30.351447 85.995765 20.234298 21.679605 47.695131 32.519407 81.659845 32.519408 32.519407 0 62.1482-7.949188 88.886379-23.847566v72.26535zM336.759418 840.446013c0-57.089626 16.62103-103.33945 49.863092-139.472125 33.242061-36.132675 77.323924-53.476359 132.245589-53.476358 52.031052 0 93.944954 17.343684 125.741708 52.031052 31.796754 34.687368 47.695131 78.769231 47.69513 133.690896 0 56.366972-16.62103 102.616796-49.140437 138.026817s-75.878617 52.753705-129.354976 52.753705c-52.031052 0-94.667608-17.343684-127.187014-51.308398-33.242061-33.964714-49.863091-78.046577-49.863092-132.245589z m81.659845-4.335921c0 35.410021 8.671842 64.316161 25.292872 86.718419 17.343684 22.402258 40.468596 33.964714 70.097389 33.964714 30.351447 0 54.199012-10.839802 70.820043-32.519407 16.62103-21.679605 25.292872-50.585745 25.292872-86.718419 0-37.577982-7.949188-67.929428-24.570219-89.609033s-39.745942-33.242061-69.374735-33.242061c-30.351447 0-54.199012 11.562456-71.542696 33.964714-17.343684 22.402258-26.015526 52.031052-26.015526 87.441073zM737.109454 926.441778c29.628793 24.570219 62.870854 36.132675 99.726182 36.132675 20.956951 0 36.855328-3.613267 47.69513-10.839802s15.898377-16.62103 15.898377-28.183487c0-10.117149-4.335921-19.511644-13.007763-28.183486-8.671842-8.671842-31.0741-20.956951-67.206774-35.410021-57.089626-23.847565-85.273112-59.257586-85.273113-105.50741 0-33.964714 13.007763-59.98024 38.300635-78.769231s59.98024-28.183486 102.616796-28.183486c35.410021 0 65.761468 4.335921 89.609034 13.730416v72.988003c-24.570219-16.62103-52.753705-24.570219-85.995766-24.570219-18.788991 0-34.687368 3.613267-45.52717 10.117149-11.562456 7.226535-17.343684 16.62103-17.343684 28.183487 0 9.394495 3.613267 18.066337 11.562456 26.015525s27.460833 18.788991 57.812279 31.796754c36.132675 15.175723 60.702893 31.796754 74.43331 49.140438 13.730416 17.343684 20.234298 37.577982 20.234298 61.425546 0 34.687368-12.285109 61.425547-36.855328 80.214538-24.570219 18.066337-59.98024 27.460833-105.50741 27.460833-41.913903 0-75.878617-6.503881-102.616796-20.234298v-77.323924z" p-id="146980"></path></svg>