<?xml version="1.0" standalone="no"?><!DOCTYPE svg PUBLIC "-//W3C//DTD SVG 1.1//EN" "http://www.w3.org/Graphics/SVG/1.1/DTD/svg11.dtd"><svg t="1569311827018" class="icon" viewBox="0 0 1024 1024" version="1.1" xmlns="http://www.w3.org/2000/svg" p-id="47467" width="16" height="16" xmlns:xlink="http://www.w3.org/1999/xlink"><defs><style type="text/css"></style></defs><path d="M518.4 262.4c-19.2 0-38.4 19.2-38.4 38.4v326.4c-64 12.8-102.4 70.4-102.4 134.4 0 76.8 57.6 134.4 134.4 134.4 83.2 0 140.8-64 140.8-134.4 0-64-38.4-115.2-96-134.4V294.4c-6.4-19.2-19.2-32-38.4-32z m160-102.4C678.4 70.4 608 0 512 0S345.6 70.4 345.6 160v377.6c-70.4 51.2-121.6 128-121.6 217.6 0 147.2 128 268.8 288 268.8s288-121.6 288-268.8c0-89.6-44.8-172.8-121.6-217.6V160z m-384 595.2c0-83.2 51.2-147.2 121.6-185.6V160C409.6 108.8 454.4 64 512 64s102.4 44.8 102.4 96v409.6c70.4 32 121.6 102.4 121.6 185.6 0 115.2-96 204.8-217.6 204.8-128 0-224-89.6-224-204.8z" p-id="47468"></path></svg>