<?xml version="1.0" standalone="no"?><!DOCTYPE svg PUBLIC "-//W3C//DTD SVG 1.1//EN" "http://www.w3.org/Graphics/SVG/1.1/DTD/svg11.dtd"><svg t="1569466822237" class="icon" viewBox="0 0 1024 1024" version="1.1" xmlns="http://www.w3.org/2000/svg" p-id="137134" width="16" height="16" xmlns:xlink="http://www.w3.org/1999/xlink"><defs><style type="text/css"></style></defs><path d="M966.874094 667.251062c-5.972836-17.27856-11.945671-34.55712-19.241063-51.238396-49.702525-114.08116-120.3953-216.941922-189.381552-311.099409-14.334805-19.539705-29.266894-23.678027-39.250062-23.678027-10.665778 0-26.451129 4.650279-41.383219 26.579119l-28.925589 42.108491c-35.837014 51.921007-72.953921 105.591201-104.396634 161.52254-29.693526 52.774269-61.989501 115.446379-76.580285 180.59295-26.87776 120.309974 55.888676 246.550121 184.645947 281.405883a253.546871 253.546871 0 0 0 66.127822 8.788601c106.871094 0 203.503041-66.810432 240.449296-166.258145 4.052996-10.921757 7.67936-21.971502 11.263062-33.063912l5.674193-19.326389V692.848929s-6.31414-17.705191-9.001916-25.597867z m-133.27956 178.24648a160.967919 160.967919 0 0 1-113.569203 46.630781 161.735855 161.735855 0 0 1-67.834347-14.761437c-65.487876-29.906841-99.40505-81.785185-98.210482-149.918173 0.469294-27.219065 9.5992-58.747104 25.683193-88.739272 32.338638-60.410966 67.578368-120.736605 101.666194-179.057079l34.68511-59.51504c58.192484 84.515624 117.750187 172.060328 156.573619 270.910757 25.299225 64.335972 12.158987 123.040413-38.994084 174.449463z" fill="#202124" p-id="137135"></path><path d="M526.462795 916.019665c-3.413049 0-7.039413 0.298642-10.665778 0.853262-4.650279 0.767936-9.129906 2.133156-13.609533 3.498375l-6.740771 2.005167a354.231814 354.231814 0 0 1-86.179485 11.348387c-79.694692 0-148.296975-32.509291-203.88701-96.631947C132.298308 752.747938 117.622198 657.011916 161.778518 552.487293c57.5952-136.521957 137.11924-259.391717 213.614199-373.600867 10.623115-15.785351 21.758187-31.272061 33.405217-47.484043l7.466044-10.452462c1.578535 2.090492 2.986418 3.967669 4.266311 5.972835l17.619865 26.792434c42.151154 64.16532 84.344971 128.330639 126.240147 192.623948 13.737522 21.075577 29.437547 25.512541 40.145988 25.512541 8.447296 0 16.979918-2.687776 25.341888-7.978002 10.751104-6.826098 17.662528-16.126656 19.966336-26.963086 2.559787-11.988334-0.639947-25.128573-9.215232-37.970169l-30.760103-46.076161c-51.025081-76.366969-102.050162-152.733939-153.84318-228.631614C445.36022 8.617949 431.068078 0 415.794684 0c-14.505458 0-28.328306 7.850012-38.823432 22.184818-100.300975 136.735272-213.742188 297.660528-289.426547 476.802933-24.232647 57.339222-36.988918 106.103158-39.036747 149.064911-8.575285 182.342138 128.586618 345.528539 312.293975 371.553038 20.222315 2.858428 40.188651 4.308974 59.344388 4.308974 41.425881 0 81.230564-6.826098 118.304808-20.222315 25.981835-9.385885 37.671527-29.693526 31.272061-54.43813-5.460878-21.11824-21.203566-33.234564-43.260395-33.234564z" fill="#202124" p-id="137136"></path><path d="M285.970836 510.208149a34.983751 34.983751 0 0 0-20.478294-7.338055c-15.486709 0-25.896509 12.073661-32.423964 21.160903-28.968253 40.572619-41.937839 83.875677-42.151154 140.873594 2.687776 79.268061 42.833764 143.945338 116.043663 186.949754 9.385885 5.546204 19.539705 10.96442 30.376135 10.96442 8.404633 0 20.179652-3.327723 28.498958-19.283726 14.846763-28.456295-10.111157-42.577785-24.744604-50.897092-38.695442-22.35547-63.056079-52.475627-74.575119-91.981668-14.292142-49.318557-6.44213-95.821348 23.379385-138.228481 20.051662-28.584285 6.186151-45.009583-3.925006-52.219649zM676.594284 799.080077c-26.365803-19.283726-41.425881-41.895175-43.687026-65.445213-2.218482-23.763353 8.532622-49.062578 31.144071-73.252563 8.105991-8.660612 17.193234-20.264978 15.785351-33.618531-0.597284-5.631531-3.413049-13.822848-13.396217-20.734272a30.461462 30.461462 0 0 0-17.705191-4.692943c-9.556537 0-22.910091 2.986418-31.144071 9.812516-34.429131 28.24298-52.048996 67.962336-52.347638 118.646113 2.047829 53.371552 26.87776 96.845263 71.887343 125.685526 8.745938 5.546204 18.259812 10.751104 28.584284 10.751104 7.12474 0 17.406549-2.559787 25.811183-14.761437 12.585618-18.345138 7.551371-35.965003-14.932089-52.432963z" fill="#202124" p-id="137137"></path></svg>